<svg width="98" height="26" viewBox="0 0 98 26" fill="none" xmlns="http://www.w3.org/2000/svg">
<path d="M50.3154 16.7324L57.8291 1.03027C57.8861 0.939164 57.9606 0.893578 58.0518 0.893555H62.0039C62.0722 0.893577 62.1063 0.93934 62.1064 1.03027L62.1406 16.8213H64.6045C64.7184 16.8214 64.7754 16.8845 64.7754 17.0098V20.8252C64.7754 20.9391 64.7298 20.996 64.6387 20.9961H62.1406V25.1025C62.1405 25.2163 62.095 25.2734 62.0039 25.2734H58.0518C57.9607 25.2734 57.9151 25.2163 57.915 25.1025V20.9961H50.3359C50.3287 20.9961 50.3221 20.9929 50.3154 20.9922V25.6152H0V0H50.3154V16.7324ZM74.0996 0.5C75.605 0.50003 76.9165 0.814144 78.0342 1.44141C79.1519 2.06871 80.0302 2.91292 80.6689 3.97363C81.319 5.02288 81.6445 6.19175 81.6445 7.48047L81.6787 18.584C81.6787 19.8498 81.3593 21.0188 80.7207 22.0908C80.0706 23.1629 79.1747 24.0185 78.0342 24.6572C76.9051 25.2959 75.5936 25.6152 74.0996 25.6152C72.6169 25.6152 71.2994 25.2959 70.1475 24.6572C69.0069 24.0185 68.1111 23.1691 67.4609 22.1084C66.8223 21.0363 66.503 19.8613 66.5029 18.584L66.5371 7.48047C66.5371 6.18035 66.8627 5.01147 67.5127 3.97363C68.1514 2.92432 69.0411 2.08531 70.1816 1.45801C71.3221 0.81937 72.6284 0.5 74.0996 0.5ZM95.2285 0.893555C95.2968 0.893586 95.3309 0.939349 95.3311 1.03027L95.3652 16.8213H97.8291C97.943 16.8214 98 16.8845 98 17.0098V20.8252C98 20.9391 97.9544 20.996 97.8633 20.9961H95.3652V25.1025C95.3651 25.2163 95.3196 25.2734 95.2285 25.2734H91.2764C91.1853 25.2734 91.1398 25.2163 91.1396 25.1025V20.9961H83.5605C83.4693 20.9961 83.4239 20.9392 83.4238 20.8252V16.9756L91.0537 1.03027C91.1107 0.939163 91.1852 0.893572 91.2764 0.893555H95.2285ZM74.0996 4.70898C73.0961 4.70898 72.292 4.96548 71.6875 5.47852C71.083 5.99176 70.7803 6.65928 70.7803 7.48047V18.584C70.7803 19.4507 71.083 20.1349 71.6875 20.6367C72.292 21.1385 73.096 21.3896 74.0996 21.3896C75.0803 21.3896 75.8783 21.1384 76.4941 20.6367C77.1214 20.1349 77.4355 19.4507 77.4355 18.584L77.4014 7.48047C77.4014 6.65928 77.0934 5.99176 76.4775 5.47852C75.8731 4.96536 75.0803 4.70902 74.0996 4.70898ZM10.5674 3.9248C9.73098 3.9248 8.95341 4.13744 8.23535 4.56348C7.5251 4.98173 6.94877 5.55042 6.50684 6.26855C6.06495 6.99455 5.84375 7.80744 5.84375 8.70703C5.84376 9.68554 6.05728 10.5693 6.4834 11.3584C6.91741 12.1396 7.57619 12.7907 8.45996 13.3115C8.7046 13.4457 8.95735 13.5883 9.21777 13.7383C9.47807 13.8803 9.7464 14.0259 10.0225 14.1758C10.2985 14.3256 10.5352 14.4598 10.7324 14.5781C10.9376 14.6886 11.1042 14.7834 11.2305 14.8623C12.0037 15.3042 12.3896 15.8213 12.3896 16.4131C12.3896 16.926 12.2125 17.3798 11.8574 17.7744C11.5024 18.161 11.0724 18.3544 10.5674 18.3545C10.0703 18.3545 9.64417 18.1649 9.28906 17.7861C8.93394 17.3994 8.75586 16.9418 8.75586 16.4131V15.3008C8.75586 15.214 8.72427 15.1699 8.66113 15.1699H5.93848C5.85972 15.17 5.82031 15.2141 5.82031 15.3008V16.4131C5.82031 17.2969 6.03381 18.1097 6.45996 18.8516C6.89393 19.5853 7.46955 20.1733 8.1875 20.6152C8.91353 21.0572 9.70719 21.2783 10.5674 21.2783C11.4432 21.2783 12.2399 21.0648 12.958 20.6387C13.676 20.2126 14.2525 19.6332 14.6865 18.8994C15.1127 18.1655 15.3262 17.3364 15.3262 16.4131C15.3262 15.4582 15.0887 14.653 14.6152 13.998C14.1497 13.3432 13.5147 12.7906 12.71 12.3408C12.6626 12.3172 12.5245 12.2462 12.2959 12.1279C12.0671 12.0017 11.8103 11.8637 11.5264 11.7139C11.2502 11.556 10.9974 11.4134 10.7686 11.2871C10.5397 11.1609 10.3932 11.0823 10.3301 11.0508C9.73074 10.7274 9.31678 10.3881 9.08789 10.0332C8.86694 9.6781 8.75587 9.23574 8.75586 8.70703C8.75586 8.18618 8.93394 7.73622 9.28906 7.35742C9.64415 6.97876 10.0703 6.78906 10.5674 6.78906C11.0566 6.78912 11.4789 6.9672 11.834 7.32227C12.1889 7.67735 12.3662 8.13897 12.3662 8.70703L12.3896 10.6953C12.3896 10.7583 12.4215 10.7899 12.4844 10.79H15.207C15.2702 10.79 15.3018 10.7584 15.3018 10.6953V8.70703C15.3018 7.81529 15.0854 7.01012 14.6514 6.29199C14.2252 5.57385 13.6527 4.99752 12.9346 4.56348C12.2166 4.13745 11.4274 3.92484 10.5674 3.9248ZM18.8174 4.17383C18.7545 4.17399 18.715 4.20558 18.6992 4.26855L15.6924 20.9238C15.6925 21.0023 15.7243 21.0418 15.7871 21.042H18.4863C18.5572 21.042 18.5965 21.0025 18.6045 20.9238L18.8652 19.1475H22.168L22.4287 20.9238C22.4367 21.0024 22.4798 21.042 22.5586 21.042H25.2451C25.316 21.042 25.3476 21.0025 25.3398 20.9238L22.4521 4.26855C22.4364 4.20556 22.3969 4.17396 22.334 4.17383H18.8174ZM26.9971 4.17383C26.9185 4.17398 26.8789 4.21323 26.8789 4.29199L26.8555 20.9238C26.8556 21.0025 26.8872 21.042 26.9502 21.042H34.7861C34.8649 21.042 34.9051 21.0025 34.9053 20.9238V18.1768C34.9051 18.0981 34.8649 18.0586 34.7861 18.0586H29.791L29.8145 4.29199C29.8145 4.21308 29.7752 4.17383 29.6963 4.17383H26.9971ZM38.7998 4.17383C38.7367 4.17383 38.6964 4.20542 38.6807 4.26855L35.6748 20.9238C35.6749 21.0025 35.7065 21.042 35.7695 21.042H38.4678C38.5387 21.042 38.5779 21.0024 38.5859 20.9238L38.8467 19.1475H42.1494L42.4102 20.9238C42.4182 21.0024 42.4613 21.042 42.54 21.042H45.2275C45.2982 21.0419 45.33 21.0023 45.3223 20.9238L42.4336 4.26855C42.4178 4.2055 42.3784 4.17391 42.3154 4.17383H38.7998ZM54.3389 16.8213H57.915V9.19141L54.3389 16.8213ZM87.5635 16.8213H91.1396V9.19141L87.5635 16.8213ZM20.6885 9.74902L21.6826 16.5557H19.3506L20.4395 9.74902L20.5459 8.84961L20.6885 9.74902ZM40.6699 9.74902L41.6641 16.5557H39.332L40.4209 9.74902L40.5273 8.84961L40.6699 9.74902Z" fill="url(#paint0_linear_860_19)"/>
<defs>
<linearGradient id="paint0_linear_860_19" x1="0" y1="12.8076" x2="98" y2="12.8076" gradientUnits="userSpaceOnUse">
<stop stop-color="#3B77EC"/>
<stop offset="1" stop-color="#7642DF"/>
</linearGradient>
</defs>
</svg>
